<mxfile host="app.diagrams.net" modified="2024-06-11T16:57:21.200Z" agent="Mozilla/5.0 (Windows NT 10.0; Win64; x64) AppleWebKit/537.36 (KHTML, like Gecko) Chrome/125.0.0.0 Safari/537.36 Edg/125.0.0.0" etag="5bqQXhHOVBQVBsbFqqJf" version="24.5.2" type="device">
  <diagram id="3j9G0F825_cHGCq9AKto" name="Page-2">
    <mxGraphModel dx="3575" dy="-710" grid="1" gridSize="10" guides="1" tooltips="1" connect="1" arrows="1" fold="1" page="1" pageScale="1" pageWidth="827" pageHeight="1169" math="0" shadow="0">
      <root>
        <mxCell id="0" />
        <mxCell id="1" parent="0" />
        <mxCell id="KhuRC_Y1lqTb-dmsCv6L-109" value="&lt;font style=&quot;font-size: 14px;&quot;&gt;Footer Information&lt;/font&gt;" style="text;html=1;align=center;verticalAlign=middle;whiteSpace=wrap;rounded=0;" parent="1" vertex="1">
          <mxGeometry x="263.93" y="3955" width="126" height="30" as="geometry" />
        </mxCell>
        <mxCell id="KhuRC_Y1lqTb-dmsCv6L-110" value="" style="rounded=0;whiteSpace=wrap;html=1;" parent="1" vertex="1">
          <mxGeometry x="-49.06999999999999" y="3340" width="380" height="230" as="geometry" />
        </mxCell>
        <mxCell id="KhuRC_Y1lqTb-dmsCv6L-111" value="" style="rounded=0;whiteSpace=wrap;html=1;" parent="1" vertex="1">
          <mxGeometry x="-49.06999999999999" y="3640" width="380" height="230" as="geometry" />
        </mxCell>
        <mxCell id="KhuRC_Y1lqTb-dmsCv6L-112" value="" style="rounded=0;whiteSpace=wrap;html=1;" parent="1" vertex="1">
          <mxGeometry x="470.93" y="3340" width="380" height="230" as="geometry" />
        </mxCell>
        <mxCell id="KhuRC_Y1lqTb-dmsCv6L-113" value="&lt;font style=&quot;font-size: 14px;&quot;&gt;Menu Options&lt;/font&gt;" style="text;html=1;align=center;verticalAlign=middle;whiteSpace=wrap;rounded=0;" parent="1" vertex="1">
          <mxGeometry x="-269.07" y="3330" width="110" height="30" as="geometry" />
        </mxCell>
        <mxCell id="KhuRC_Y1lqTb-dmsCv6L-114" value="&lt;font style=&quot;font-size: 14px;&quot;&gt;Dashboard&lt;/font&gt;" style="text;html=1;align=center;verticalAlign=middle;whiteSpace=wrap;rounded=0;" parent="1" vertex="1">
          <mxGeometry x="-284.07" y="3400" width="110" height="30" as="geometry" />
        </mxCell>
        <mxCell id="KhuRC_Y1lqTb-dmsCv6L-115" value="&lt;font style=&quot;font-size: 14px;&quot;&gt;Transactions&lt;/font&gt;" style="text;html=1;align=center;verticalAlign=middle;whiteSpace=wrap;rounded=0;" parent="1" vertex="1">
          <mxGeometry x="-279.07" y="3440" width="110" height="30" as="geometry" />
        </mxCell>
        <mxCell id="KhuRC_Y1lqTb-dmsCv6L-116" value="&lt;font style=&quot;font-size: 14px;&quot;&gt;Profile&lt;/font&gt;" style="text;html=1;align=center;verticalAlign=middle;whiteSpace=wrap;rounded=0;" parent="1" vertex="1">
          <mxGeometry x="-299.07" y="3500" width="110" height="30" as="geometry" />
        </mxCell>
        <mxCell id="KhuRC_Y1lqTb-dmsCv6L-117" style="edgeStyle=orthogonalEdgeStyle;rounded=0;orthogonalLoop=1;jettySize=auto;html=1;exitX=0.5;exitY=1;exitDx=0;exitDy=0;" parent="1" source="KhuRC_Y1lqTb-dmsCv6L-116" target="KhuRC_Y1lqTb-dmsCv6L-116" edge="1">
          <mxGeometry relative="1" as="geometry" />
        </mxCell>
        <mxCell id="KhuRC_Y1lqTb-dmsCv6L-118" value="&lt;font style=&quot;font-size: 14px;&quot;&gt;Card image&lt;/font&gt;" style="text;html=1;align=center;verticalAlign=middle;whiteSpace=wrap;rounded=0;" parent="1" vertex="1">
          <mxGeometry x="70.93" y="3410" width="140" height="30" as="geometry" />
        </mxCell>
        <mxCell id="KhuRC_Y1lqTb-dmsCv6L-119" value="&lt;span style=&quot;font-size: 14px;&quot;&gt;Balance information&lt;/span&gt;" style="text;html=1;align=center;verticalAlign=middle;whiteSpace=wrap;rounded=0;" parent="1" vertex="1">
          <mxGeometry x="570.9300000000001" y="3430" width="180" height="30" as="geometry" />
        </mxCell>
        <mxCell id="KhuRC_Y1lqTb-dmsCv6L-120" value="&lt;font style=&quot;font-size: 14px;&quot;&gt;Transaction information&lt;/font&gt;" style="text;html=1;align=center;verticalAlign=middle;whiteSpace=wrap;rounded=0;" parent="1" vertex="1">
          <mxGeometry x="60.93000000000001" y="3730" width="150" height="30" as="geometry" />
        </mxCell>
        <mxCell id="KhuRC_Y1lqTb-dmsCv6L-121" value="" style="endArrow=none;html=1;rounded=0;" parent="1" edge="1">
          <mxGeometry width="50" height="50" relative="1" as="geometry">
            <mxPoint x="-149.07" y="3380" as="sourcePoint" />
            <mxPoint x="-269.07" y="3380" as="targetPoint" />
          </mxGeometry>
        </mxCell>
        <mxCell id="KhuRC_Y1lqTb-dmsCv6L-122" value="" style="endArrow=none;html=1;rounded=0;entryX=1;entryY=0;entryDx=0;entryDy=0;exitX=0;exitY=1;exitDx=0;exitDy=0;" parent="1" source="KhuRC_Y1lqTb-dmsCv6L-110" target="KhuRC_Y1lqTb-dmsCv6L-110" edge="1">
          <mxGeometry width="50" height="50" relative="1" as="geometry">
            <mxPoint x="-39.06999999999999" y="3560" as="sourcePoint" />
            <mxPoint x="230.93" y="3660" as="targetPoint" />
          </mxGeometry>
        </mxCell>
        <mxCell id="KhuRC_Y1lqTb-dmsCv6L-123" value="" style="endArrow=none;html=1;rounded=0;entryX=0;entryY=0;entryDx=0;entryDy=0;exitX=1;exitY=1;exitDx=0;exitDy=0;" parent="1" source="KhuRC_Y1lqTb-dmsCv6L-110" target="KhuRC_Y1lqTb-dmsCv6L-110" edge="1">
          <mxGeometry width="50" height="50" relative="1" as="geometry">
            <mxPoint x="180.93" y="3710" as="sourcePoint" />
            <mxPoint x="230.93" y="3660" as="targetPoint" />
          </mxGeometry>
        </mxCell>
        <mxCell id="KhuRC_Y1lqTb-dmsCv6L-124" value="&lt;b&gt;More&lt;/b&gt;" style="rounded=0;whiteSpace=wrap;html=1;fillColor=#dae8fc;strokeColor=#6c8ebf;" parent="1" vertex="1">
          <mxGeometry x="740.93" y="3517" width="90" height="40" as="geometry" />
        </mxCell>
        <mxCell id="KhuRC_Y1lqTb-dmsCv6L-125" value="&lt;b&gt;Withdraw&lt;/b&gt;" style="rounded=0;whiteSpace=wrap;html=1;fillColor=#dae8fc;strokeColor=#6c8ebf;" parent="1" vertex="1">
          <mxGeometry x="615.9300000000001" y="3517" width="90" height="40" as="geometry" />
        </mxCell>
        <mxCell id="KhuRC_Y1lqTb-dmsCv6L-126" value="&lt;b&gt;Deposit&lt;/b&gt;" style="rounded=0;whiteSpace=wrap;html=1;fillColor=#dae8fc;strokeColor=#6c8ebf;" parent="1" vertex="1">
          <mxGeometry x="500.93" y="3517" width="90" height="40" as="geometry" />
        </mxCell>
        <mxCell id="KhuRC_Y1lqTb-dmsCv6L-127" value="&lt;b&gt;View accounts&lt;/b&gt;" style="rounded=0;whiteSpace=wrap;html=1;fillColor=#dae8fc;strokeColor=#6c8ebf;" parent="1" vertex="1">
          <mxGeometry x="220.93" y="3430" width="90" height="40" as="geometry" />
        </mxCell>
        <mxCell id="KhuRC_Y1lqTb-dmsCv6L-128" value="" style="rounded=0;whiteSpace=wrap;html=1;" parent="1" vertex="1">
          <mxGeometry x="-310.07" y="3270" width="1250.07" height="860" as="geometry" />
        </mxCell>
        <mxCell id="KhuRC_Y1lqTb-dmsCv6L-129" value="" style="rounded=0;whiteSpace=wrap;html=1;fillColor=#f5f5f5;fontColor=#333333;strokeColor=#666666;rotation=-270;" parent="1" vertex="1">
          <mxGeometry x="-630.0000000000001" y="3594.6900000000005" width="857.5" height="213.13" as="geometry" />
        </mxCell>
        <mxCell id="KhuRC_Y1lqTb-dmsCv6L-130" value="&lt;font size=&quot;3&quot;&gt;&lt;b&gt;LOGO&lt;/b&gt;&lt;/font&gt;" style="rhombus;whiteSpace=wrap;html=1;fillColor=#dae8fc;strokeColor=#6c8ebf;" parent="1" vertex="1">
          <mxGeometry x="-299.07" y="3280" width="80" height="80" as="geometry" />
        </mxCell>
        <mxCell id="KhuRC_Y1lqTb-dmsCv6L-131" value="&lt;b&gt;Logout&lt;/b&gt;" style="rounded=0;whiteSpace=wrap;html=1;fillColor=#dae8fc;strokeColor=#6c8ebf;" parent="1" vertex="1">
          <mxGeometry x="769.93" y="3300" width="90" height="40" as="geometry" />
        </mxCell>
        <mxCell id="KhuRC_Y1lqTb-dmsCv6L-132" value="" style="rounded=0;whiteSpace=wrap;html=1;fillColor=#f5f5f5;fontColor=#f5f5f5;strokeColor=#666666;" parent="1" vertex="1">
          <mxGeometry x="-309.07" y="4030" width="1249" height="100" as="geometry" />
        </mxCell>
        <mxCell id="KhuRC_Y1lqTb-dmsCv6L-133" value="&lt;font style=&quot;font-size: 14px;&quot;&gt;Footer Information&lt;/font&gt;" style="text;html=1;align=center;verticalAlign=middle;whiteSpace=wrap;rounded=0;" parent="1" vertex="1">
          <mxGeometry x="243.93" y="4065" width="126" height="30" as="geometry" />
        </mxCell>
        <mxCell id="KhuRC_Y1lqTb-dmsCv6L-134" value="" style="rounded=0;whiteSpace=wrap;html=1;" parent="1" vertex="1">
          <mxGeometry x="-69.07" y="3450" width="380" height="230" as="geometry" />
        </mxCell>
        <mxCell id="KhuRC_Y1lqTb-dmsCv6L-135" value="&lt;b&gt;&lt;font style=&quot;font-size: 18px;&quot;&gt;Welcome Message&lt;/font&gt;&lt;/b&gt;" style="text;html=1;align=center;verticalAlign=middle;whiteSpace=wrap;rounded=0;" parent="1" vertex="1">
          <mxGeometry x="-69.07" y="3290" width="230" height="30" as="geometry" />
        </mxCell>
        <mxCell id="KhuRC_Y1lqTb-dmsCv6L-136" value="Current user information" style="text;html=1;align=center;verticalAlign=middle;whiteSpace=wrap;rounded=0;" parent="1" vertex="1">
          <mxGeometry x="-49.06999999999999" y="3330" width="160" height="30" as="geometry" />
        </mxCell>
        <mxCell id="KhuRC_Y1lqTb-dmsCv6L-137" value="" style="rounded=0;whiteSpace=wrap;html=1;" parent="1" vertex="1">
          <mxGeometry x="450.93" y="3450" width="380" height="230" as="geometry" />
        </mxCell>
        <mxCell id="KhuRC_Y1lqTb-dmsCv6L-138" value="&lt;font style=&quot;font-size: 14px;&quot;&gt;Menu Options&lt;/font&gt;" style="text;html=1;align=center;verticalAlign=middle;whiteSpace=wrap;rounded=0;" parent="1" vertex="1">
          <mxGeometry x="-289.07" y="3440" width="110" height="30" as="geometry" />
        </mxCell>
        <mxCell id="KhuRC_Y1lqTb-dmsCv6L-139" value="&lt;font style=&quot;font-size: 14px;&quot;&gt;Dashboard&lt;/font&gt;" style="text;html=1;align=center;verticalAlign=middle;whiteSpace=wrap;rounded=0;" parent="1" vertex="1">
          <mxGeometry x="-304.07" y="3510" width="110" height="30" as="geometry" />
        </mxCell>
        <mxCell id="KhuRC_Y1lqTb-dmsCv6L-140" value="&lt;font style=&quot;font-size: 14px;&quot;&gt;Transactions&lt;/font&gt;" style="text;html=1;align=center;verticalAlign=middle;whiteSpace=wrap;rounded=0;" parent="1" vertex="1">
          <mxGeometry x="-299.07" y="3550" width="110" height="30" as="geometry" />
        </mxCell>
        <mxCell id="KhuRC_Y1lqTb-dmsCv6L-141" value="&lt;font style=&quot;font-size: 14px;&quot;&gt;Profile&lt;/font&gt;" style="text;html=1;align=center;verticalAlign=middle;whiteSpace=wrap;rounded=0;" parent="1" vertex="1">
          <mxGeometry x="-319.07" y="3610" width="110" height="30" as="geometry" />
        </mxCell>
        <mxCell id="KhuRC_Y1lqTb-dmsCv6L-142" style="edgeStyle=orthogonalEdgeStyle;rounded=0;orthogonalLoop=1;jettySize=auto;html=1;exitX=0.5;exitY=1;exitDx=0;exitDy=0;" parent="1" source="KhuRC_Y1lqTb-dmsCv6L-141" target="KhuRC_Y1lqTb-dmsCv6L-141" edge="1">
          <mxGeometry relative="1" as="geometry" />
        </mxCell>
        <mxCell id="KhuRC_Y1lqTb-dmsCv6L-143" value="&lt;font style=&quot;font-size: 14px;&quot;&gt;Card image&lt;/font&gt;" style="text;html=1;align=center;verticalAlign=middle;whiteSpace=wrap;rounded=0;" parent="1" vertex="1">
          <mxGeometry x="50.93000000000001" y="3520" width="140" height="30" as="geometry" />
        </mxCell>
        <mxCell id="KhuRC_Y1lqTb-dmsCv6L-144" value="&lt;span style=&quot;font-size: 14px;&quot;&gt;Balance information&lt;/span&gt;" style="text;html=1;align=center;verticalAlign=middle;whiteSpace=wrap;rounded=0;" parent="1" vertex="1">
          <mxGeometry x="550.9300000000001" y="3540" width="180" height="30" as="geometry" />
        </mxCell>
        <mxCell id="KhuRC_Y1lqTb-dmsCv6L-145" value="" style="endArrow=none;html=1;rounded=0;" parent="1" edge="1">
          <mxGeometry width="50" height="50" relative="1" as="geometry">
            <mxPoint x="-169.07" y="3490" as="sourcePoint" />
            <mxPoint x="-289.07" y="3490" as="targetPoint" />
          </mxGeometry>
        </mxCell>
        <mxCell id="KhuRC_Y1lqTb-dmsCv6L-146" value="" style="endArrow=none;html=1;rounded=0;entryX=1;entryY=0;entryDx=0;entryDy=0;exitX=0;exitY=1;exitDx=0;exitDy=0;" parent="1" source="KhuRC_Y1lqTb-dmsCv6L-134" target="KhuRC_Y1lqTb-dmsCv6L-134" edge="1">
          <mxGeometry width="50" height="50" relative="1" as="geometry">
            <mxPoint x="-59.06999999999999" y="3670" as="sourcePoint" />
            <mxPoint x="210.93" y="3770" as="targetPoint" />
          </mxGeometry>
        </mxCell>
        <mxCell id="KhuRC_Y1lqTb-dmsCv6L-147" value="" style="endArrow=none;html=1;rounded=0;entryX=0;entryY=0;entryDx=0;entryDy=0;exitX=1;exitY=1;exitDx=0;exitDy=0;" parent="1" source="KhuRC_Y1lqTb-dmsCv6L-134" target="KhuRC_Y1lqTb-dmsCv6L-134" edge="1">
          <mxGeometry width="50" height="50" relative="1" as="geometry">
            <mxPoint x="160.93" y="3820" as="sourcePoint" />
            <mxPoint x="210.93" y="3770" as="targetPoint" />
          </mxGeometry>
        </mxCell>
        <mxCell id="KhuRC_Y1lqTb-dmsCv6L-148" value="&lt;b&gt;View Transactions&lt;/b&gt;" style="rounded=0;whiteSpace=wrap;html=1;fillColor=#dae8fc;strokeColor=#6c8ebf;" parent="1" vertex="1">
          <mxGeometry x="720.93" y="3627" width="90" height="40" as="geometry" />
        </mxCell>
        <mxCell id="KhuRC_Y1lqTb-dmsCv6L-149" value="&lt;b&gt;Withdraw&lt;/b&gt;" style="rounded=0;whiteSpace=wrap;html=1;fillColor=#dae8fc;strokeColor=#6c8ebf;" parent="1" vertex="1">
          <mxGeometry x="595.9300000000001" y="3627" width="90" height="40" as="geometry" />
        </mxCell>
        <mxCell id="KhuRC_Y1lqTb-dmsCv6L-150" value="&lt;b&gt;Deposit&lt;/b&gt;" style="rounded=0;whiteSpace=wrap;html=1;fillColor=#dae8fc;strokeColor=#6c8ebf;" parent="1" vertex="1">
          <mxGeometry x="480.93" y="3627" width="90" height="40" as="geometry" />
        </mxCell>
        <mxCell id="KhuRC_Y1lqTb-dmsCv6L-151" value="" style="rounded=0;whiteSpace=wrap;html=1;" parent="1" vertex="1">
          <mxGeometry x="450.93" y="3740" width="380" height="230" as="geometry" />
        </mxCell>
        <mxCell id="KhuRC_Y1lqTb-dmsCv6L-152" value="&lt;span style=&quot;font-size: 14px;&quot;&gt;Balance information&lt;/span&gt;" style="text;html=1;align=center;verticalAlign=middle;whiteSpace=wrap;rounded=0;" parent="1" vertex="1">
          <mxGeometry x="560.9300000000001" y="3830" width="180" height="30" as="geometry" />
        </mxCell>
        <mxCell id="KhuRC_Y1lqTb-dmsCv6L-153" value="&lt;b&gt;View Transactions&lt;/b&gt;" style="rounded=0;whiteSpace=wrap;html=1;fillColor=#dae8fc;strokeColor=#6c8ebf;" parent="1" vertex="1">
          <mxGeometry x="730.93" y="3917" width="90" height="40" as="geometry" />
        </mxCell>
        <mxCell id="KhuRC_Y1lqTb-dmsCv6L-154" value="&lt;b&gt;Withdraw&lt;/b&gt;" style="rounded=0;whiteSpace=wrap;html=1;fillColor=#dae8fc;strokeColor=#6c8ebf;" parent="1" vertex="1">
          <mxGeometry x="605.9300000000001" y="3917" width="90" height="40" as="geometry" />
        </mxCell>
        <mxCell id="KhuRC_Y1lqTb-dmsCv6L-155" value="&lt;b&gt;Deposit&lt;/b&gt;" style="rounded=0;whiteSpace=wrap;html=1;fillColor=#dae8fc;strokeColor=#6c8ebf;" parent="1" vertex="1">
          <mxGeometry x="490.93" y="3917" width="90" height="40" as="geometry" />
        </mxCell>
        <mxCell id="KhuRC_Y1lqTb-dmsCv6L-156" value="" style="rounded=0;whiteSpace=wrap;html=1;" parent="1" vertex="1">
          <mxGeometry x="-69.07" y="3740" width="380" height="230" as="geometry" />
        </mxCell>
        <mxCell id="KhuRC_Y1lqTb-dmsCv6L-157" value="&lt;font style=&quot;font-size: 14px;&quot;&gt;Card image&lt;/font&gt;" style="text;html=1;align=center;verticalAlign=middle;whiteSpace=wrap;rounded=0;" parent="1" vertex="1">
          <mxGeometry x="50.93000000000001" y="3810" width="140" height="30" as="geometry" />
        </mxCell>
        <mxCell id="KhuRC_Y1lqTb-dmsCv6L-158" value="" style="endArrow=none;html=1;rounded=0;entryX=1;entryY=0;entryDx=0;entryDy=0;exitX=0;exitY=1;exitDx=0;exitDy=0;" parent="1" source="KhuRC_Y1lqTb-dmsCv6L-156" target="KhuRC_Y1lqTb-dmsCv6L-156" edge="1">
          <mxGeometry width="50" height="50" relative="1" as="geometry">
            <mxPoint x="-59.06999999999999" y="3960" as="sourcePoint" />
            <mxPoint x="210.93" y="4060" as="targetPoint" />
          </mxGeometry>
        </mxCell>
        <mxCell id="KhuRC_Y1lqTb-dmsCv6L-159" value="" style="endArrow=none;html=1;rounded=0;entryX=0;entryY=0;entryDx=0;entryDy=0;exitX=1;exitY=1;exitDx=0;exitDy=0;" parent="1" source="KhuRC_Y1lqTb-dmsCv6L-156" target="KhuRC_Y1lqTb-dmsCv6L-156" edge="1">
          <mxGeometry width="50" height="50" relative="1" as="geometry">
            <mxPoint x="160.93" y="4110" as="sourcePoint" />
            <mxPoint x="210.93" y="4060" as="targetPoint" />
          </mxGeometry>
        </mxCell>
        <mxCell id="KhuRC_Y1lqTb-dmsCv6L-160" value="&lt;font style=&quot;font-size: 18px;&quot;&gt;&lt;b&gt;Customer Home&lt;/b&gt;&lt;/font&gt;" style="text;html=1;align=center;verticalAlign=middle;whiteSpace=wrap;rounded=0;" parent="1" vertex="1">
          <mxGeometry x="243.93" y="3200" width="176" height="30" as="geometry" />
        </mxCell>
        <mxCell id="4bFOf3q3WvnAby6B3AYO-1" value="&lt;h1 style=&quot;margin-top: 0px;&quot;&gt;A&lt;/h1&gt;" style="text;html=1;whiteSpace=wrap;overflow=hidden;rounded=0;align=center;" vertex="1" parent="1">
          <mxGeometry x="359.93000000000006" y="3690" width="30" height="40" as="geometry" />
        </mxCell>
        <mxCell id="4bFOf3q3WvnAby6B3AYO-2" value="&lt;h1 style=&quot;margin-top: 0px;&quot;&gt;B&lt;/h1&gt;" style="text;html=1;whiteSpace=wrap;overflow=hidden;rounded=0;align=center;" vertex="1" parent="1">
          <mxGeometry x="-149.99999999999994" y="3290" width="30" height="40" as="geometry" />
        </mxCell>
        <mxCell id="4bFOf3q3WvnAby6B3AYO-4" value="&lt;h1 style=&quot;margin-top: 0px;&quot;&gt;D&lt;/h1&gt;" style="text;html=1;whiteSpace=wrap;overflow=hidden;rounded=0;align=center;" vertex="1" parent="1">
          <mxGeometry x="270.93000000000006" y="3460" width="30" height="40" as="geometry" />
        </mxCell>
        <mxCell id="4bFOf3q3WvnAby6B3AYO-5" value="&lt;h1 style=&quot;margin-top: 0px;&quot;&gt;E&lt;/h1&gt;" style="text;html=1;whiteSpace=wrap;overflow=hidden;rounded=0;align=center;" vertex="1" parent="1">
          <mxGeometry x="785.9300000000001" y="3460" width="30" height="40" as="geometry" />
        </mxCell>
        <mxCell id="4bFOf3q3WvnAby6B3AYO-6" value="&lt;h1 style=&quot;margin-top: 0px;&quot;&gt;D&lt;/h1&gt;" style="text;html=1;whiteSpace=wrap;overflow=hidden;rounded=0;align=center;" vertex="1" parent="1">
          <mxGeometry x="263.93000000000006" y="3750" width="30" height="40" as="geometry" />
        </mxCell>
        <mxCell id="4bFOf3q3WvnAby6B3AYO-8" value="&lt;h1 style=&quot;margin-top: 0px;&quot;&gt;H&lt;/h1&gt;" style="text;html=1;whiteSpace=wrap;overflow=hidden;rounded=0;align=center;" vertex="1" parent="1">
          <mxGeometry x="384.0000000000001" y="3280" width="30" height="40" as="geometry" />
        </mxCell>
        <mxCell id="4bFOf3q3WvnAby6B3AYO-13" value="&lt;h1 style=&quot;margin-top: 0px;&quot;&gt;C&lt;/h1&gt;" style="text;html=1;whiteSpace=wrap;overflow=hidden;rounded=0;align=center;" vertex="1" parent="1">
          <mxGeometry x="433.93000000000006" y="4050" width="30" height="40" as="geometry" />
        </mxCell>
        <mxCell id="4bFOf3q3WvnAby6B3AYO-16" value="&lt;h1 style=&quot;margin-top: 0px;&quot;&gt;E&lt;/h1&gt;" style="text;html=1;whiteSpace=wrap;overflow=hidden;rounded=0;align=center;" vertex="1" parent="1">
          <mxGeometry x="785.9300000000001" y="3760" width="30" height="40" as="geometry" />
        </mxCell>
      </root>
    </mxGraphModel>
  </diagram>
</mxfile>
